<svg width="20" height="19" viewBox="0 0 20 19" fill="none" xmlns="http://www.w3.org/2000/svg">
<g id="Google - Original" clip-path="url(#clip0_35_4047)">
<path id="Vector" d="M19.3147 9.71894C19.3147 9.07316 19.2623 8.42389 19.1506 7.78857H10.1899V11.4469H15.3213C15.1084 12.6267 14.4242 13.6704 13.4224 14.3337V16.7074H16.4837C18.2815 15.0528 19.3147 12.6093 19.3147 9.71894Z" fill="#4285F4"/>
<path id="Vector_2" d="M10.1901 19.0009C12.7523 19.0009 14.9131 18.1596 16.4874 16.7075L13.426 14.3338C12.5743 14.9132 11.4747 15.2414 10.1936 15.2414C7.7152 15.2414 5.61378 13.5693 4.85979 11.3213H1.70068V13.7683C3.3134 16.9763 6.59817 19.0009 10.1901 19.0009Z" fill="#34A853"/>
<path id="Vector_3" d="M4.85612 11.3211C4.45818 10.1413 4.45818 8.86368 4.85612 7.68381V5.23682H1.70051C0.353087 7.92118 0.353087 11.0838 1.70051 13.7681L4.85612 11.3211Z" fill="#FBBC04"/>
<path id="Vector_4" d="M10.1901 3.76015C11.5445 3.7392 12.8535 4.24885 13.8344 5.18436L16.5467 2.47207C14.8293 0.859358 12.5498 -0.0272856 10.1901 0.000640194C6.59817 0.000640194 3.3134 2.02526 1.70068 5.23672L4.8563 7.68372C5.6068 5.4322 7.71171 3.76015 10.1901 3.76015Z" fill="#EA4335"/>
</g>
<defs>
<clipPath id="clip0_35_4047">
<rect width="19" height="19" fill="white" transform="translate(0.5)"/>
</clipPath>
</defs>
</svg>
