<svg xmlns="http://www.w3.org/2000/svg" xmlns:xlink="http://www.w3.org/1999/xlink" width="2000" zoomAndPan="magnify" viewBox="0 0 1500 1499.999933" height="2000" preserveAspectRatio="xMidYMid meet" version="1.0"><defs><g/><clipPath id="7d3aa51094"><path d="M 542.566406 213 L 1033.066406 213 L 1033.066406 859.863281 L 542.566406 859.863281 Z M 542.566406 213 " clip-rule="nonzero"/></clipPath><clipPath id="d2853ee1a3"><path d="M 542.566406 427 L 972 427 L 972 859.863281 L 542.566406 859.863281 Z M 542.566406 427 " clip-rule="nonzero"/></clipPath></defs><g clip-path="url(#7d3aa51094)"><path fill="#ffffff" d="M 1033.164062 213.164062 L 660.203125 213.164062 C 595.273438 213.164062 542.636719 265.777344 542.636719 330.675781 L 542.636719 859.488281 L 639.742188 422.695312 C 651.695312 368.933594 699.40625 330.675781 754.503906 330.675781 L 933.382812 330.675781 C 988.484375 330.675781 1033.164062 286.027344 1033.164062 230.9375 L 1033.164062 213.164062 " fill-opacity="1" fill-rule="nonzero"/></g><g clip-path="url(#d2853ee1a3)"><path fill="#468fd3" d="M 971.34375 427.160156 L 795.488281 427.160156 C 747.445312 427.160156 704.230469 456.382812 686.355469 500.96875 L 542.636719 859.488281 L 780.757812 570.078125 C 803.085938 542.9375 836.402344 527.203125 871.5625 527.203125 C 926.667969 527.203125 971.34375 482.554688 971.34375 427.464844 L 971.34375 427.160156 " fill-opacity="1" fill-rule="nonzero"/></g><g fill="#ffffff" fill-opacity="1"><g transform="translate(56.615476, 1168.112447)"><g><path d="M 23.46875 0 L 23.46875 -219.703125 L 166.5 -219.703125 L 166.5 -179.015625 L 76.984375 -179.015625 L 76.984375 -131.765625 L 143.96875 -131.765625 L 143.96875 -91.078125 L 76.984375 -91.078125 L 76.984375 0 Z M 23.46875 0 "/></g></g></g><g fill="#ffffff" fill-opacity="1"><g transform="translate(213.728575, 1168.112447)"><g><path d="M 129.875 -55.390625 C 137.601562 -62.898438 141.46875 -73.539062 141.46875 -87.3125 C 141.46875 -101.082031 137.601562 -111.671875 129.875 -119.078125 C 122.15625 -126.484375 113.285156 -130.1875 103.265625 -130.1875 C 93.253906 -130.1875 84.390625 -126.429688 76.671875 -118.921875 C 68.953125 -111.410156 65.09375 -100.769531 65.09375 -87 C 65.09375 -73.226562 68.953125 -62.640625 76.671875 -55.234375 C 84.390625 -47.828125 93.253906 -44.125 103.265625 -44.125 C 113.285156 -44.125 122.15625 -47.878906 129.875 -55.390625 Z M 33.796875 -22.84375 C 18.359375 -39.539062 10.640625 -60.925781 10.640625 -87 C 10.640625 -113.082031 18.359375 -134.519531 33.796875 -151.3125 C 49.234375 -168.113281 68.0625 -176.515625 90.28125 -176.515625 C 112.507812 -176.515625 129.570312 -168.273438 141.46875 -151.796875 L 141.46875 -174.640625 L 194.984375 -174.640625 L 194.984375 0 L 141.46875 0 L 141.46875 -25.34375 C 128.53125 -6.988281 111.207031 2.1875 89.5 2.1875 C 67.800781 2.1875 49.234375 -6.15625 33.796875 -22.84375 Z M 33.796875 -22.84375 "/></g></g></g><g fill="#ffffff" fill-opacity="1"><g transform="translate(409.337476, 1168.112447)"><g><path d="M 34.890625 -22.21875 C 18.722656 -38.488281 10.640625 -60.1875 10.640625 -87.3125 C 10.640625 -114.4375 18.722656 -136.082031 34.890625 -152.25 C 51.066406 -168.425781 71.984375 -176.515625 97.640625 -176.515625 C 118.921875 -176.515625 136.96875 -171.242188 151.78125 -160.703125 C 166.601562 -150.171875 176.410156 -135.097656 181.203125 -115.484375 L 123.3125 -115.484375 C 118.300781 -125.921875 110.109375 -131.140625 98.734375 -131.140625 C 87.367188 -131.140625 78.921875 -127.117188 73.390625 -119.078125 C 67.859375 -111.046875 65.09375 -100.457031 65.09375 -87.3125 C 65.09375 -74.164062 67.859375 -63.578125 73.390625 -55.546875 C 78.921875 -47.515625 87.003906 -43.5 97.640625 -43.5 C 104.316406 -43.5 109.53125 -44.644531 113.28125 -46.9375 C 117.039062 -49.238281 120.382812 -53.3125 123.3125 -59.15625 L 181.203125 -59.15625 C 176.410156 -40.375 166.5 -25.453125 151.46875 -14.390625 C 136.445312 -3.335938 118.503906 2.1875 97.640625 2.1875 C 71.984375 2.1875 51.066406 -5.945312 34.890625 -22.21875 Z M 34.890625 -22.21875 "/></g></g></g><g fill="#468fd3" fill-opacity="1"><g transform="translate(574.267779, 1168.112447)"><g><path d="M 165.390625 -64.46875 C 175.929688 -75.945312 181.203125 -91.28125 181.203125 -110.46875 C 181.203125 -129.664062 175.929688 -145.003906 165.390625 -156.484375 C 154.859375 -167.960938 140.773438 -173.703125 123.140625 -173.703125 C 105.515625 -173.703125 91.429688 -167.960938 80.890625 -156.484375 C 70.359375 -145.003906 65.09375 -129.664062 65.09375 -110.46875 C 65.09375 -91.28125 70.359375 -75.945312 80.890625 -64.46875 C 91.429688 -53 105.515625 -47.265625 123.140625 -47.265625 C 140.773438 -47.265625 154.859375 -53 165.390625 -64.46875 Z M 43.34375 -29.734375 C 21.539062 -51.015625 10.640625 -77.925781 10.640625 -110.46875 C 10.640625 -143.019531 21.539062 -169.882812 43.34375 -191.0625 C 65.144531 -212.238281 91.847656 -222.828125 123.453125 -222.828125 C 155.066406 -222.828125 181.671875 -212.238281 203.265625 -191.0625 C 224.867188 -169.882812 235.671875 -143.019531 235.671875 -110.46875 C 235.671875 -77.925781 224.816406 -51.015625 203.109375 -29.734375 C 181.410156 -8.453125 154.804688 2.1875 123.296875 2.1875 C 91.796875 2.1875 65.144531 -8.453125 43.34375 -29.734375 Z M 43.34375 -29.734375 "/></g></g></g><g fill="#468fd3" fill-opacity="1"><g transform="translate(798.044412, 1168.112447)"><g><path d="M 8.453125 -179.015625 L 8.453125 -219.703125 L 181.828125 -219.703125 L 181.828125 -179.015625 L 121.75 -179.015625 L 121.75 0 L 68.234375 0 L 68.234375 -179.015625 Z M 8.453125 -179.015625 "/></g></g></g><g fill="#468fd3" fill-opacity="1"><g transform="translate(965.485678, 1168.112447)"><g><path d="M 8.453125 -179.015625 L 8.453125 -219.703125 L 181.828125 -219.703125 L 181.828125 -179.015625 L 121.75 -179.015625 L 121.75 0 L 68.234375 0 L 68.234375 -179.015625 Z M 8.453125 -179.015625 "/></g></g></g><g fill="#ffffff" fill-opacity="1"><g transform="translate(1132.923981, 1168.112447)"><g><path d="M 76.984375 -174.640625 L 76.984375 -142.09375 C 89.503906 -165.039062 106.195312 -176.515625 127.0625 -176.515625 L 127.0625 -122.0625 L 113.921875 -122.0625 C 101.609375 -122.0625 92.375 -119.140625 86.21875 -113.296875 C 80.0625 -107.453125 76.984375 -97.226562 76.984375 -82.625 L 76.984375 0 L 23.46875 0 L 23.46875 -174.640625 Z M 76.984375 -174.640625 "/></g></g></g><g fill="#ffffff" fill-opacity="1"><g transform="translate(1242.777926, 1168.112447)"><g><path d="M 69.171875 -3.4375 L 1.25 -174.640625 L 61.96875 -174.640625 L 100.78125 -60.40625 L 143.34375 -174.640625 L 199.359375 -174.640625 L 87.9375 83.25 L 31.921875 83.25 Z M 69.171875 -3.4375 "/></g></g></g></svg>