<svg xmlns="http://www.w3.org/2000/svg" xmlns:xlink="http://www.w3.org/1999/xlink" width="2000" zoomAndPan="magnify" viewBox="0 0 1500 1499.999933" height="2000" preserveAspectRatio="xMidYMid meet" version="1.0"><defs><clipPath id="cbe423f751"><path d="M 328.582031 151 L 1237.582031 151 L 1237.582031 1350 L 328.582031 1350 Z M 328.582031 151 " clip-rule="nonzero"/></clipPath><clipPath id="64408a2da8"><path d="M 328.582031 547 L 1124 547 L 1124 1350 L 328.582031 1350 Z M 328.582031 547 " clip-rule="nonzero"/></clipPath></defs><g clip-path="url(#cbe423f751)"><path fill="#ffffff" d="M 1237.761719 151.015625 L 546.585938 151.015625 C 426.261719 151.015625 328.714844 248.558594 328.714844 368.882812 L 328.714844 1349.300781 L 508.671875 539.492188 C 530.824219 439.8125 619.242188 368.882812 721.351562 368.882812 L 1052.847656 368.882812 C 1154.96875 368.882812 1237.761719 286.101562 1237.761719 183.96875 L 1237.761719 151.015625 " fill-opacity="1" fill-rule="nonzero"/></g><g clip-path="url(#64408a2da8)"><path fill="#468fd3" d="M 1123.195312 547.765625 L 797.296875 547.765625 C 708.265625 547.765625 628.183594 601.949219 595.054688 684.605469 L 328.714844 1349.300781 L 770.003906 812.738281 C 811.382812 762.417969 873.125 733.25 938.28125 733.25 C 1040.402344 733.25 1123.195312 650.46875 1123.195312 548.335938 L 1123.195312 547.765625 " fill-opacity="1" fill-rule="nonzero"/></g></svg>